<?xml version="1.0" encoding="utf-8"?>
<!-- Generator: Adobe Illustrator 24.1.2, SVG Export Plug-In . SVG Version: 6.00 Build 0)  -->
<svg version="1.1" id="Capa_1" xmlns="http://www.w3.org/2000/svg" xmlns:xlink="http://www.w3.org/1999/xlink" x="0px" y="0px"
	 viewBox="0 0 1082.65 474.77" style="enable-background:new 0 0 1082.65 474.77;" xml:space="preserve">
<style type="text/css">
	.st0{fill:#FFFFFF;}
</style>
<g>
	<path class="st0" d="M680.97,96.57c0,24.7,0,48.7,0,73.08c-71.49,0-142.78,0-213.86,0c-0.85,1.51-0.33,2.42,0.31,3.36
		c15.02,22.07,31.33,43.18,47.84,64.13c11.08,14.05,23.03,27.41,34.45,41.19c11.66,14.07,23.75,27.74,36.16,41.14
		c1.52,1.64,2.63,3.49,2.86,5.72c1.56,15.5-1.63,29.34-14.11,39.89c-1.69,1.43-3.49,2.3-5.82,2.3
		c-101.4-0.03-202.8-0.02-304.21-0.03c-0.28,0-0.56-0.19-1.17-0.41c0-28.05,0-56.21,0-84.92c60.03,0,120.02,0,180.43,0
		c-0.86-3.55-3.15-5.61-5.11-7.8c-5.82-6.47-11.83-12.77-17.6-19.27c-17.9-20.14-35.9-40.2-53.46-60.62
		c-4.61-5.36-11.13-9.57-12.39-17.42c-3.89-24.13,5.83-55.32,29.94-70.03c15.41-9.4,32.02-11.04,49.35-10.85
		c27.01,0.29,54.03,0.37,81.04,0.48c53.58,0.22,107.16-0.67,160.74,0.07C677.72,96.59,679.1,96.57,680.97,96.57z"/>
	<path class="st0" d="M0,238.14C78.08,159.3,155.76,80.86,232.66,3.21c9.85,9.01,19.5,17.83,28.81,26.35
		c-70.15,70.55-139.58,140.37-208.63,209.81c70.14,70.3,140.44,140.76,210.59,211.07c-8.47,8.48-16.36,16.38-24.31,24.33
		C159.26,396.42,81.43,315.78,0,238.14z"/>
	<path class="st0" d="M1030.22,237.69c-70.1-70.26-140.24-140.55-210.25-210.71c7.89-7.78,15.82-15.61,23.9-23.59
		c79.44,77.97,157.31,158.55,238.77,236.37C1004.87,318.3,927.13,396.8,850.1,474.59c-9.87-9.04-19.59-17.93-29.04-26.58
		C891.22,377.46,960.69,307.61,1030.22,237.69z"/>
	<path class="st0" d="M644.64,461c-12.63-4.35-24.68-8.5-37.15-12.8c51.06-145.64,102.05-291.05,153.14-436.74
		c12.16,4.61,24.04,9.11,36.22,13.72C746.08,170.55,695.42,315.61,644.64,461z"/>
</g>
</svg>
